<svg width="88" height="55" viewBox="0 0 88 55" fill="none" xmlns="http://www.w3.org/2000/svg">
<path d="M28.3288 0H0V42.7446H28.3288V0Z" fill="url(#paint0_linear)"/>
<path d="M58.1644 0H29.8356V42.7446H58.1644V0Z" fill="url(#paint1_linear)"/>
<path d="M88 0H59.6712V42.7446H88V0Z" fill="url(#paint2_linear)"/>
<path d="M4.89792 44.5978V45.4921H1.72149V47.7992H4.76472V48.6935H1.72149V51.7119H0.768555V44.5978H4.89792ZM6.85119 46.6304V47.4841C7.14491 46.854 7.67773 46.5389 8.44966 46.5389V47.4638C8.01246 47.4435 7.63674 47.5585 7.32254 47.8093C7.0083 48.0601 6.85119 48.463 6.85119 49.0187V51.7119H5.95971V46.6304H6.85119ZM9.77273 45.7056C9.60195 45.7056 9.45849 45.6479 9.34238 45.5328C9.22626 45.4177 9.16818 45.2787 9.16818 45.1161C9.16818 44.9535 9.22626 44.8145 9.34238 44.6994C9.45849 44.5775 9.60195 44.5165 9.77273 44.5165C9.93668 44.5165 10.0767 44.5775 10.1928 44.6994C10.309 44.8145 10.367 44.9535 10.367 45.1161C10.367 45.2787 10.309 45.4177 10.1928 45.5328C10.0767 45.6479 9.93668 45.7056 9.77273 45.7056ZM10.2133 51.7119H9.32188V46.6304H10.2133V51.7119ZM16.4917 49.5777H12.1984C12.2872 50.0249 12.4955 50.3773 12.8234 50.6346C13.1513 50.8854 13.5612 51.0107 14.053 51.0107C14.7293 51.0107 15.2211 50.7635 15.5285 50.2688L16.2868 50.6956C15.7813 51.4611 15.0298 51.8441 14.0325 51.8441C13.2264 51.8441 12.5638 51.5933 12.0447 51.092C11.5392 50.577 11.2864 49.9367 11.2864 49.1712C11.2864 48.3988 11.5357 47.7618 12.0344 47.2605C12.5331 46.7524 13.1786 46.4983 13.971 46.4983C14.7224 46.4983 15.3338 46.7625 15.8052 47.291C16.2833 47.806 16.5224 48.4361 16.5224 49.1813C16.5224 49.3102 16.5122 49.4423 16.4917 49.5777ZM13.971 47.3317C13.4997 47.3317 13.1035 47.4638 12.7824 47.728C12.4682 47.9923 12.2735 48.3513 12.1984 48.8053H15.6207C15.5456 48.3378 15.3577 47.9752 15.0572 47.7179C14.7566 47.4605 14.3945 47.3317 13.971 47.3317ZM20.0986 46.4983C20.6997 46.4983 21.1813 46.6881 21.5433 47.0674C21.9054 47.4402 22.0864 47.9483 22.0864 48.5919V51.7119H21.195V48.6427C21.195 48.2362 21.0822 47.9178 20.8568 47.6874C20.6314 47.4569 20.3206 47.3418 19.9244 47.3418C19.4667 47.3418 19.1046 47.4841 18.8382 47.7687C18.5718 48.0464 18.4386 48.463 18.4386 49.0187V51.7119H17.5472V46.6304H18.4386V47.3621C18.7938 46.7861 19.3471 46.4983 20.0986 46.4983ZM27.573 47.5044V44.5978H28.4644V51.7119H27.573V50.8379C27.1358 51.5087 26.4902 51.8441 25.6364 51.8441C24.9123 51.8441 24.3009 51.5867 23.8022 51.0717C23.2967 50.5501 23.044 49.9164 23.044 49.1712C23.044 48.4326 23.2967 47.8024 23.8022 47.2808C24.3077 46.7592 24.9191 46.4983 25.6364 46.4983C26.4902 46.4983 27.1358 46.8337 27.573 47.5044ZM25.7491 50.9904C26.2682 50.9904 26.702 50.8176 27.0504 50.472C27.3988 50.113 27.573 49.6793 27.573 49.1712C27.573 48.6561 27.3988 48.226 27.0504 47.8805C26.702 47.528 26.2682 47.352 25.7491 47.352C25.2367 47.352 24.8064 47.528 24.458 47.8805C24.1096 48.226 23.9354 48.6561 23.9354 49.1712C23.9354 49.6793 24.1096 50.113 24.458 50.472C24.8064 50.8176 25.2367 50.9904 25.7491 50.9904ZM30.5734 48.0024C30.5734 48.3276 30.9116 48.5817 31.5878 48.7646C31.8407 48.8188 32.0526 48.8764 32.2231 48.9374C32.4009 48.9915 32.592 49.0764 32.7969 49.1915C33.0088 49.3066 33.1694 49.459 33.2785 49.6488C33.3879 49.8386 33.4425 50.0622 33.4425 50.3196C33.4425 50.7802 33.2616 51.1497 32.8994 51.4274C32.5375 51.7051 32.0797 51.8441 31.5264 51.8441C31.0345 51.8441 30.6078 51.7391 30.2455 51.529C29.8904 51.3123 29.6377 51.0208 29.4874 50.655L30.2558 50.218C30.3378 50.4619 30.4915 50.655 30.7169 50.7973C30.9423 50.9395 31.2123 51.0107 31.5264 51.0107C31.8338 51.0107 32.0797 50.953 32.2641 50.8379C32.4486 50.7228 32.5408 50.5501 32.5408 50.3196C32.5408 49.974 32.2026 49.7233 31.5264 49.5675C31.3009 49.5066 31.1304 49.459 31.014 49.4252C30.898 49.3915 30.7374 49.3305 30.5324 49.2423C30.3344 49.1541 30.1841 49.0627 30.0817 48.9679C29.9792 48.8663 29.8836 48.7342 29.7948 48.5716C29.7128 48.4021 29.6718 48.2158 29.6718 48.0126C29.6718 47.5723 29.8426 47.2097 30.1841 46.9251C30.5324 46.6406 30.9664 46.4983 31.4854 46.4983C31.9022 46.4983 32.271 46.593 32.592 46.7829C32.9199 46.9658 33.1658 47.2232 33.3298 47.5552L32.5818 47.9719C32.3973 47.5382 32.0321 47.3215 31.4854 47.3215C31.2259 47.3215 31.0074 47.3825 30.8296 47.5044C30.659 47.6264 30.5734 47.7923 30.5734 48.0024ZM36.7729 48.1549C36.7729 47.1251 37.1315 46.2544 37.8488 45.543C38.5661 44.8247 39.4436 44.4657 40.4822 44.4657C41.5204 44.4657 42.3983 44.8247 43.1155 45.543C43.8394 46.2544 44.2017 47.1251 44.2017 48.1549C44.2017 49.178 43.8394 50.0485 43.1155 50.7668C42.3983 51.4851 41.5204 51.8441 40.4822 51.8441C39.4436 51.8441 38.5661 51.4851 37.8488 50.7668C37.1315 50.0419 36.7729 49.1712 36.7729 48.1549ZM43.2487 48.1549C43.2487 47.369 42.9823 46.7117 42.4495 46.1832C41.9302 45.6479 41.2745 45.3804 40.4822 45.3804C39.6965 45.3804 39.0374 45.6479 38.5046 46.1832C37.9784 46.7186 37.7156 47.3756 37.7156 48.1549C37.7156 48.9273 37.9784 49.5846 38.5046 50.1265C39.0374 50.655 39.6965 50.9192 40.4822 50.9192C41.2745 50.9192 41.9302 50.655 42.4495 50.1265C42.9823 49.5846 43.2487 48.9273 43.2487 48.1549ZM47.8883 44.4657V45.3194C46.9866 45.2449 46.5358 45.6311 46.5358 46.478V46.6304H47.8883V47.4841H46.5358V51.7119H45.6443V47.4841H44.8246V46.6304H45.6443V46.478C45.6443 45.7869 45.839 45.2686 46.2284 44.923C46.6178 44.5706 47.1711 44.4182 47.8883 44.4657ZM56.959 51.7119H55.9445L55.3605 50.1163H52.1328L51.5488 51.7119H50.5344L53.2087 44.5978H54.2846L56.959 51.7119ZM53.7415 45.7259L52.4607 49.2321H55.0326L53.7415 45.7259ZM60.2644 46.4983C60.8653 46.4983 61.3469 46.6881 61.7092 47.0674C62.0711 47.4402 62.2522 47.9483 62.2522 48.5919V51.7119H61.3608V48.6427C61.3608 48.2362 61.2481 47.9178 61.0226 47.6874C60.7972 47.4569 60.4862 47.3418 60.0902 47.3418C59.6324 47.3418 59.2705 47.4841 59.0041 47.7687C58.7376 48.0464 58.6044 48.463 58.6044 49.0187V51.7119H57.713V46.6304H58.6044V47.3621C58.9595 46.7861 59.5128 46.4983 60.2644 46.4983ZM63.9474 45.7056C63.7769 45.7056 63.6334 45.6479 63.5171 45.5328C63.401 45.4177 63.3429 45.2787 63.3429 45.1161C63.3429 44.9535 63.401 44.8145 63.5171 44.6994C63.6334 44.5775 63.7769 44.5165 63.9474 44.5165C64.1114 44.5165 64.2515 44.5775 64.3675 44.6994C64.4839 44.8145 64.5417 44.9535 64.5417 45.1161C64.5417 45.2787 64.4839 45.4177 64.3675 45.5328C64.2515 45.6479 64.1114 45.7056 63.9474 45.7056ZM64.388 51.7119H63.4966V46.6304H64.388V51.7119ZM71.2813 46.4983C71.862 46.4983 72.3264 46.6845 72.6748 47.0573C73.0301 47.43 73.2076 47.928 73.2076 48.5512V51.7119H72.3162V48.5817C72.3162 48.1955 72.2137 47.8939 72.0088 47.6772C71.8108 47.4536 71.5374 47.3418 71.189 47.3418C70.7927 47.3418 70.482 47.4739 70.2566 47.7382C70.0381 47.9955 69.9287 48.3785 69.9287 48.8866V51.7119H69.0373V48.5817C69.0373 48.1955 68.9381 47.8939 68.7401 47.6772C68.5487 47.4536 68.2859 47.3418 67.9511 47.3418C67.5618 47.3418 67.2441 47.4772 66.9982 47.7483C66.7592 48.0126 66.6396 48.3919 66.6396 48.8866V51.7119H65.7481V46.6304H66.6396V47.3113C66.9879 46.7694 67.497 46.4983 68.1663 46.4983C68.8561 46.4983 69.3582 46.7861 69.6726 47.3621C70.0279 46.7861 70.564 46.4983 71.2813 46.4983ZM78.6856 47.5044V46.6304H79.5771V51.7119H78.6856V50.8379C78.2486 51.5087 77.6031 51.8441 76.749 51.8441C76.0251 51.8441 75.4136 51.5867 74.9149 51.0717C74.4095 50.5501 74.1566 49.9164 74.1566 49.1712C74.1566 48.4326 74.4095 47.8024 74.9149 47.2808C75.4206 46.7592 76.0318 46.4983 76.749 46.4983C77.6031 46.4983 78.2486 46.8337 78.6856 47.5044ZM76.8617 50.9904C77.381 50.9904 77.8147 50.8176 78.163 50.472C78.5114 50.113 78.6856 49.6793 78.6856 49.1712C78.6856 48.6561 78.5114 48.226 78.163 47.8805C77.8147 47.528 77.381 47.352 76.8617 47.352C76.3494 47.352 75.919 47.528 75.5707 47.8805C75.2223 48.226 75.0481 48.6561 75.0481 49.1712C75.0481 49.6793 75.2223 50.113 75.5707 50.472C75.919 50.8176 76.3494 50.9904 76.8617 50.9904ZM81.8193 51.7119H80.9278V44.2929H81.8193V51.7119ZM83.9379 48.0024C83.9379 48.3276 84.276 48.5817 84.9523 48.7646C85.2048 48.8188 85.4167 48.8764 85.5876 48.9374C85.7651 48.9915 85.9565 49.0764 86.1614 49.1915C86.373 49.3066 86.5336 49.459 86.643 49.6488C86.7521 49.8386 86.8069 50.0622 86.8069 50.3196C86.8069 50.7802 86.6258 51.1497 86.2639 51.4274C85.9016 51.7051 85.4441 51.8441 84.8908 51.8441C84.399 51.8441 83.972 51.7391 83.61 51.529C83.2547 51.3123 83.0018 51.0208 82.8518 50.655L83.6203 50.218C83.7022 50.4619 83.8559 50.655 84.0814 50.7973C84.3068 50.9395 84.5765 51.0107 84.8908 51.0107C85.1982 51.0107 85.4441 50.953 85.6286 50.8379C85.813 50.7228 85.9052 50.5501 85.9052 50.3196C85.9052 49.974 85.5671 49.7233 84.8908 49.5675C84.6654 49.5066 84.4945 49.459 84.3785 49.4252C84.2622 49.3915 84.1018 49.3305 83.8969 49.2423C83.6986 49.1541 83.5485 49.0627 83.4461 48.9679C83.3436 48.8663 83.2478 48.7342 83.1592 48.5716C83.0772 48.4021 83.0362 48.2158 83.0362 48.0126C83.0362 47.5723 83.2068 47.2097 83.5485 46.9251C83.8969 46.6406 84.3306 46.4983 84.8498 46.4983C85.2663 46.4983 85.6352 46.593 85.9565 46.7829C86.2844 46.9658 86.5303 47.2232 86.6942 47.5552L85.9462 47.9719C85.7618 47.5382 85.3962 47.3215 84.8498 47.3215C84.5901 47.3215 84.3716 47.3825 84.1941 47.5044C84.0232 47.6264 83.9379 47.7923 83.9379 48.0024Z" fill="#FF932F"/>
<path d="M19.5288 21.2228V24.9054H13.1398V28.1337H19.4083V31.8163H13.1398V37.962H9.28223V21.2228H19.5288Z" fill="white"/>
<path d="M81.7918 37.962H77.5727L76.7288 35.3315H70.4603L69.6165 37.962H65.3973L71.1354 21.2228H76.0538L81.7918 37.962ZM73.5946 25.5989L71.6176 31.7446H75.5716L73.5946 25.5989Z" fill="white"/>
<path d="M44.386 27.5043C44.7633 27.5043 44.9957 26.9769 44.9957 26.6438C44.9957 26.3662 44.8504 26.0332 44.5602 26.0332C44.1829 26.0332 43.9508 26.5605 43.9508 26.8936C43.9508 27.1712 44.0961 27.5043 44.386 27.5043ZM43.2833 27.5043C43.5735 27.5043 43.7188 27.1712 43.7188 26.8936C43.7188 26.5328 43.4864 26.0054 43.1091 26.0054C42.8189 26.0054 42.6739 26.3385 42.6739 26.6161C42.645 26.9769 42.8771 27.5043 43.2833 27.5043ZM45.4309 27.2267C45.0536 27.2267 44.7926 27.7263 44.7926 28.0872C44.7926 28.337 44.9086 28.5868 45.1696 28.5868C45.5469 28.5868 45.8082 28.0872 45.8082 27.7263C45.8082 27.4765 45.6632 27.2267 45.4309 27.2267ZM42.906 28.0872C42.906 27.7263 42.6158 27.2267 42.2677 27.2267C42.0064 27.2267 41.8904 27.4765 41.8904 27.7263C41.8904 28.0872 42.1806 28.5868 42.529 28.5868C42.79 28.5868 42.906 28.337 42.906 28.0872ZM43.8348 28.0316C43.2544 28.0316 42.4708 28.9198 42.4708 29.5305C42.4708 29.808 42.6739 29.8913 42.906 29.8913C43.2544 29.8913 43.5157 29.6692 43.8348 29.6692C44.125 29.6692 44.386 29.8913 44.7055 29.8913C44.9375 29.8913 45.1988 29.8358 45.1988 29.5305C45.1988 28.9198 44.4153 28.0316 43.8348 28.0316Z" fill="white"/>
<path d="M42.7102 30.062C42.6053 29.9209 42.4067 29.8919 42.2672 29.998C42.1277 30.1041 42.099 30.3053 42.2039 30.4464L42.5806 30.9548C42.6282 31.0188 42.6213 31.1079 42.5658 31.1641L42.4393 31.292C42.373 31.3593 42.2651 31.3542 42.206 31.2812L41.3179 30.2022V28.717C41.3179 28.5398 41.1765 28.3967 41.0014 28.3967C40.8263 28.3967 40.685 28.5398 40.685 28.717V30.9028C40.685 31.0119 40.7215 31.118 40.789 31.2029L41.8181 32.5471C41.8676 32.6123 41.9013 32.6861 41.9212 32.7644C41.939 32.8335 42.0011 32.8804 42.0725 32.8804H43.3747C43.4618 32.8804 43.5329 32.8084 43.5329 32.7202V31.5993C43.5329 31.3222 43.444 31.0529 43.2798 30.8308L42.7102 30.062ZM46.6973 28.3967C46.5222 28.3967 46.3809 28.5398 46.3809 28.717V30.2022L45.4928 31.2812C45.4337 31.3533 45.3249 31.3581 45.2595 31.292L45.1329 31.1641C45.0775 31.1079 45.0705 31.0188 45.1182 30.9548L45.4949 30.4464C45.5997 30.3053 45.5711 30.1041 45.4316 29.998C45.292 29.8919 45.0934 29.9209 44.9886 30.062L44.419 30.8308C44.2547 31.0529 44.1658 31.3222 44.1658 31.5993V32.7202C44.1658 32.8084 44.2369 32.8804 44.324 32.8804H45.6263C45.6965 32.8804 45.7598 32.8335 45.7775 32.7644C45.7974 32.6861 45.8312 32.6123 45.8806 32.5471L46.9098 31.2029C46.9773 31.118 47.0138 31.0119 47.0138 30.9028V28.717C47.0138 28.5398 46.8724 28.3967 46.6973 28.3967Z" fill="white"/>
<path d="M52.4384 29.5924C52.4384 34.2148 48.6604 37.962 44.0001 37.962C39.3397 37.962 35.5617 34.2148 35.5617 29.5924C35.5617 24.97 39.3397 21.2228 44.0001 21.2228C48.6604 21.2228 52.4384 24.97 52.4384 29.5924ZM38.5151 29.5924C38.5151 32.5971 40.9707 35.0326 44.0001 35.0326C47.0294 35.0326 49.485 32.5971 49.485 29.5924C49.485 26.5879 47.0294 24.1522 44.0001 24.1522C40.9707 24.1522 38.5151 26.5879 38.5151 29.5924Z" fill="white"/>
<defs>
<linearGradient id="paint0_linear" x1="14.1644" y1="0" x2="14.1644" y2="42.7446" gradientUnits="userSpaceOnUse">
<stop stop-color="#E90101"/>
<stop offset="1" stop-color="#7C0000"/>
</linearGradient>
<linearGradient id="paint1_linear" x1="44" y1="0" x2="44" y2="42.7446" gradientUnits="userSpaceOnUse">
<stop stop-color="#2EED02"/>
<stop offset="1" stop-color="#057600"/>
</linearGradient>
<linearGradient id="paint2_linear" x1="73.8356" y1="0" x2="73.8356" y2="42.7446" gradientUnits="userSpaceOnUse">
<stop stop-color="#2E59F3"/>
<stop offset="1" stop-color="#060BA3"/>
</linearGradient>
</defs>
</svg>
